<svg xmlns="http://www.w3.org/2000/svg" class="icon icon-tabler icon-tabler-glass-full" width="250px" height="250px" viewBox="0 0 24 24" stroke-width="1.00" stroke="rgba(255, 0, 228, 1)" fill="none" stroke-linecap="round" stroke-linejoin="round"><defs><filter id="sharpness-filter780" x="0" y="0" width="100%" height="100%"><feConvolveMatrix kernelMatrix="0 -1 0 -1 5 -1 0 -1 0"/></filter><filter id="smoothness-filter781" x="0" y="0" width="100%" height="100%"><feConvolveMatrix kernelMatrix="-1 -1 -1 -1 -7 -1 -1 -1 -1"/></filter></defs><circle cx="50%" cy="50%" r="50%" stroke="none" stroke-width="0" fill="rgba(255, 255, 255, 1)"/><g transform="translate(2.40, 2.40) scale(0.8)" style="filter: url(&quot;#sharpness-filter780&quot;) url(&quot;#smoothness-filter781&quot;);"><desc>Download more icon variants from https://tabler-icons.io/i/glass-full</desc><path stroke="none" d="M0 0h24v24H0z" fill="none"/><line x1="8" y1="21" x2="16" y2="21"/><line x1="12" y1="15" x2="12" y2="21"/><path d="M17 3l1 7c0 3.012 -2.686 5 -6 5s-6 -1.988 -6 -5l1 -7h10z"/><path d="M6 10a5 5 0 0 1 6 0a5 5 0 0 0 6 0"/></g>
  
  
  
  
  
  
</svg>